<svg xmlns="http://www.w3.org/2000/svg" viewBox="0 0 1024 500" width="1024" height="500">
  <!-- Background -->
  <rect width="1024" height="500" fill="#1a56db"/>

  <!-- Train icon: big, centered vertically -->
  <g transform="translate(55, 97) scale(8.5)">
    <path fill="#292F33" d="M36 18c0 9.941-8.059 18-18 18S0 27.941 0 18 8.059 0 18 0s18 8.059 18 18"/>
    <path fill="#808285" d="M8.896 33.509c.7.412 1.421.79 2.178 1.106L17.65 20h-1.419zM19.77 20h-1.42l6.577 14.615a18 18 0 0 0 2.178-1.106z"/>
    <path fill="#58595B" d="M12 26h2v2h-2zm10 0h2v2h-2z"/>
    <path fill="#A7A9AC" d="M26 25a2 2 0 0 1-2 2H12a2 2 0 0 1-2-2v-2a2 2 0 0 1 2-2h12a2 2 0 0 1 2 2z"/>
    <path fill="#D1D3D4" d="M24.363 6H11.636A3.636 3.636 0 0 0 8 9.636V23a2 2 0 0 0 2 2h16a2 2 0 0 0 2-2V9.636A3.636 3.636 0 0 0 24.363 6"/>
    <path fill="#DD2E44" d="M8 19v4a2 2 0 0 0 2 2h16a2 2 0 0 0 2-2v-8H8z"/>
    <path fill="#58595B" d="M26 17a2 2 0 0 1-2 2H12a2 2 0 0 1-2-2v-7a2 2 0 0 1 2-2h12a2 2 0 0 1 2 2z"/>
    <path fill="#55ACEE" d="M24 16a1 1 0 0 1-1 1H13a1 1 0 0 1-1-1v-5a1 1 0 0 1 1-1h10a1 1 0 0 1 1 1z"/>
    <path fill="#FFD983" d="M10 21h4v2h-4zm12 0h4v2h-4z"/>
    <path fill="#808285" d="M20 9a1 1 0 0 1-1 1h-2a1 1 0 0 1 0-2h2a1 1 0 0 1 1 1"/>
  </g>

  <!-- App name -->
  <text x="415" y="230" font-family="-apple-system,BlinkMacSystemFont,'Segoe UI',system-ui,sans-serif" font-size="90" font-weight="900" fill="white">Patna Metro</text>

  <!-- Subtitle -->
  <text x="415" y="278" font-family="-apple-system,BlinkMacSystemFont,'Segoe UI',system-ui,sans-serif" font-size="19" font-weight="400" fill="white" opacity="0.7">Route Planner · Fare Calculator · Metro Map · Train Schedule</text>

  <!-- Badges: aligned with title start x=415 -->
  <rect x="415" y="318" width="129" height="38" rx="19" fill="white" opacity="0.15"/>
  <text x="479" y="342" font-family="-apple-system,BlinkMacSystemFont,'Segoe UI',system-ui,sans-serif" font-size="16" font-weight="600" fill="white" text-anchor="middle">Free</text>

  <rect x="554" y="318" width="129" height="38" rx="19" fill="white" opacity="0.15"/>
  <text x="618" y="342" font-family="-apple-system,BlinkMacSystemFont,'Segoe UI',system-ui,sans-serif" font-size="16" font-weight="600" fill="white" text-anchor="middle">No Login</text>

  <rect x="693" y="318" width="129" height="38" rx="19" fill="white" opacity="0.15"/>
  <text x="757" y="342" font-family="-apple-system,BlinkMacSystemFont,'Segoe UI',system-ui,sans-serif" font-size="16" font-weight="600" fill="white" text-anchor="middle">Hindi · English</text>

  <rect x="832" y="318" width="129" height="38" rx="19" fill="white" opacity="0.15"/>
  <text x="896" y="342" font-family="-apple-system,BlinkMacSystemFont,'Segoe UI',system-ui,sans-serif" font-size="16" font-weight="600" fill="white" text-anchor="middle">Works Offline</text>
</svg>
